<svg width="48" height="30" viewBox="0 0 48 30" fill="none" xmlns="http://www.w3.org/2000/svg">
<path opacity="0.07" d="M44.25 0H4.25C2.125 0 0.5 1.625 0.5 3.75V26.25C0.5 28.375 2.25 30 4.25 30H44.25C46.375 30 48 28.375 48 26.25V3.75C48 1.625 46.25 0 44.25 0Z" fill="#212121" fill-opacity="0.129412"/>
<path d="M44.25 1.25C45.625 1.25 46.75 2.375 46.75 3.75V26.25C46.75 27.625 45.625 28.75 44.25 28.75H4.25C2.875 28.75 1.75 27.625 1.75 26.25V3.75C1.75 2.375 2.875 1.25 4.25 1.25H44.25Z" fill="white"/>
<path d="M35.875 12.625H35.5C35 13.875 34.625 14.5 34.25 16.375H36.625C36.25 14.5 36.25 13.625 35.875 12.625ZM39.5 20H37.375C37.25 20 37.25 20 37.125 19.875L36.875 18.75L36.75 18.5H33.75C33.625 18.5 33.5 18.5 33.5 18.75L33.125 19.875C33.125 20 33 20 33 20H30.375L30.625 19.375L34.25 10.875C34.25 10.25 34.625 10 35.25 10H37.125C37.25 10 37.375 10 37.375 10.25L39.125 18.375C39.25 18.875 39.375 19.25 39.375 19.75C39.5 19.875 39.5 19.875 39.5 20ZM22.75 19.625L23.25 17.375C23.375 17.375 23.5 17.5 23.5 17.5C24.375 17.875 25.25 18.125 26.125 18C26.375 18 26.75 17.875 27 17.75C27.625 17.5 27.625 16.875 27.125 16.375C26.875 16.125 26.5 16 26.125 15.75C25.625 15.5 25.125 15.25 24.75 14.875C23.25 13.625 23.75 11.875 24.625 11C25.375 10.5 25.75 10 26.75 10C28.25 10 29.875 10 30.625 10.25H30.75C30.625 11 30.5 11.625 30.25 12.375C29.625 12.125 29 11.875 28.375 11.875C28 11.875 27.625 11.875 27.25 12C27 12 26.875 12.125 26.75 12.25C26.5 12.5 26.5 12.875 26.75 13.125L27.375 13.625C27.875 13.875 28.375 14.125 28.75 14.375C29.375 14.75 30 15.375 30.125 16.125C30.375 17.25 30 18.25 29 19C28.375 19.5 28.125 19.75 27.25 19.75C25.5 19.75 24.125 19.875 23 19.5C22.875 19.75 22.875 19.75 22.75 19.625ZM18.375 20C18.5 19.125 18.5 19.125 18.625 18.75C19.25 16 19.875 13.125 20.375 10.375C20.5 10.125 20.5 10 20.75 10H23C22.75 11.5 22.5 12.625 22.125 14C21.75 15.875 21.375 17.75 20.875 19.625C20.875 19.875 20.75 19.875 20.5 19.875M6.75 10.25C6.75 10.125 7 10 7.125 10H11.375C12 10 12.5 10.375 12.625 11L13.75 16.5C13.75 16.625 13.75 16.625 13.875 16.75C13.875 16.625 14 16.625 14 16.625L16.625 10.25C16.5 10.125 16.625 10 16.75 10H19.375C19.375 10.125 19.375 10.125 19.25 10.25L15.375 19.375C15.25 19.625 15.25 19.75 15.125 19.875C15 20 14.75 19.875 14.5 19.875H12.625C12.5 19.875 12.375 19.875 12.375 19.625L10.375 11.875C10.125 11.625 9.75 11.25 9.25 11.125C8.5 10.75 7.125 10.5 6.875 10.5L6.75 10.25Z" fill="#142688"/>
</svg>
