<svg width="48" height="30" viewBox="0 0 48 30" fill="none" xmlns="http://www.w3.org/2000/svg">
<path opacity="0.07" d="M43.75 0H3.75C1.625 0 0 1.625 0 3.75V26.25C0 28.375 1.75 30 3.75 30H43.75C45.875 30 47.5 28.375 47.5 26.25V3.75C47.5 1.625 45.75 0 43.75 0Z" fill="#212121" fill-opacity="0.129412"/>
<path d="M43.75 1.25C45.125 1.25 46.25 2.375 46.25 3.75V26.25C46.25 27.625 45.125 28.75 43.75 28.75H3.75C2.375 28.75 1.25 27.625 1.25 26.25V3.75C1.25 2.375 2.375 1.25 3.75 1.25H43.75Z" fill="white"/>
<path d="M22.6162 14.9702V18.9702H21.3438V9.09516H24.7075C25.1105 9.08834 25.5109 9.16125 25.8857 9.3097C26.2605 9.45814 26.6022 9.6792 26.8912 9.96016C27.165 10.2157 27.3858 10.5226 27.5409 10.8635C27.696 11.2043 27.7824 11.5724 27.7952 11.9467C27.8079 12.3209 27.7468 12.6941 27.6153 13.0447C27.4838 13.3953 27.2845 13.7166 27.0287 13.9902L26.8912 14.1352C26.3037 14.6939 25.5188 14.9977 24.7075 14.9777L22.6162 14.9702ZM22.6162 10.3052V13.7902H24.7387C25.21 13.8052 25.665 13.6214 25.995 13.2852C26.231 13.0391 26.3895 12.7291 26.4508 12.3937C26.512 12.0583 26.4733 11.7123 26.3394 11.3987C26.2055 11.0851 25.9824 10.8178 25.6978 10.6301C25.4132 10.4423 25.0797 10.3424 24.7387 10.3427L22.6162 10.3052ZM30.7212 11.9902C31.5337 11.9527 32.3287 12.2252 32.9437 12.7564C33.5 13.2939 33.7962 14.0439 33.7562 14.8177V18.9852H32.545V18.0277H32.4837C32.2665 18.3868 31.9594 18.683 31.5926 18.8871C31.2258 19.0912 30.8122 19.1961 30.3925 19.1914C29.7074 19.2136 29.0393 18.9756 28.5225 18.5252C28.2777 18.3254 28.0814 18.0727 27.9487 17.7859C27.8159 17.4992 27.7501 17.1861 27.7562 16.8702C27.7418 16.5509 27.8038 16.2328 27.9371 15.9424C28.0704 15.6519 28.2711 15.3974 28.5225 15.2002C29.1393 14.7566 29.8858 14.5302 30.645 14.5564C31.2913 14.5314 31.9325 14.6727 32.5075 14.9702V14.7102C32.5117 14.4952 32.467 14.2821 32.3767 14.087C32.2864 13.8918 32.1529 13.7198 31.9862 13.5839C31.6517 13.2797 31.2133 13.1151 30.7612 13.1239C30.4329 13.1208 30.1092 13.2015 29.8207 13.3583C29.5322 13.5151 29.2885 13.7429 29.1125 14.0202L27.9937 13.3152C28.2975 12.8799 28.7076 12.5297 29.1851 12.2977C29.6625 12.0658 30.1913 11.9599 30.7212 11.9902ZM29.1125 16.9002C29.1095 17.0621 29.1463 17.2222 29.2198 17.3665C29.2933 17.5108 29.4011 17.6348 29.5338 17.7277C29.8125 17.9477 30.1587 18.0639 30.515 18.0564C31.0512 18.0552 31.565 17.8439 31.9475 17.4664C32.3287 17.1089 32.545 16.6102 32.545 16.0877C32.0638 15.7456 31.4791 15.5804 30.89 15.6202C30.4326 15.6022 29.9815 15.7309 29.6025 15.9877C29.4524 16.0881 29.3293 16.2238 29.2438 16.3829C29.1584 16.542 29.1133 16.7196 29.1125 16.9002ZM40.72 12.2127L36.4825 21.9502H35.1725L36.7738 18.5402L33.9937 12.2127H35.3725L37.3875 17.0689L39.3487 12.2127H40.72Z" fill="#5F6368"/>
<path d="M17.4826 14.1051C17.4826 13.7201 17.4526 13.3351 17.3913 12.9551H12.0288V15.1388H15.0926C15.0302 15.4859 14.8984 15.8168 14.7051 16.1117C14.5118 16.4066 14.2609 16.6594 13.9676 16.8551V18.2726H15.7976C16.354 17.7342 16.7914 17.0852 17.0816 16.3674C17.3719 15.6496 17.5084 14.8789 17.4826 14.1051Z" fill="#4285F4"/>
<path d="M12.0362 19.6509C13.4191 19.6889 14.7645 19.1986 15.7987 18.2797L13.9662 16.8547C13.5259 17.137 13.027 17.3152 12.5075 17.3757C11.9879 17.4362 11.4615 17.3775 10.968 17.2039C10.4746 17.0304 10.0273 16.7466 9.66005 16.3742C9.2928 16.0017 9.01532 15.5505 8.84869 15.0547H6.97119V16.5172C7.441 17.4585 8.16375 18.2503 9.05839 18.8038C9.95302 19.3573 10.9842 19.6507 12.0362 19.6509Z" fill="#34A853"/>
<path d="M8.84866 15.0629C8.61091 14.3595 8.61091 13.5975 8.84866 12.8941V11.4316H6.97116C6.5709 12.221 6.3623 13.0935 6.3623 13.9785C6.3623 14.8635 6.5709 15.7361 6.97116 16.5254L8.84866 15.0629Z" fill="#FBBC04"/>
<path d="M12.0362 10.5505C12.8449 10.5357 13.6268 10.8412 14.2112 11.4005L15.8362 9.78423C14.8001 8.81174 13.4258 8.2813 12.0049 8.30548C10.9592 8.31072 9.93524 8.60548 9.04673 9.15708C8.15822 9.70867 7.43983 10.4956 6.97119 11.4305L8.84869 12.8942C9.06822 12.2193 9.4938 11.6302 10.0656 11.2098C10.6373 10.7894 11.3265 10.5588 12.0362 10.5505Z" fill="#EA4335"/>
</svg>
