<svg width="48" height="30" viewBox="0 0 48 30" fill="none" xmlns="http://www.w3.org/2000/svg">
<path opacity="0.07" d="M43.75 0H3.75C1.625 0 0 1.625 0 3.75V26.25C0 28.375 1.75 30 3.75 30H43.75C45.875 30 47.5 28.375 47.5 26.25V3.75C47.5 1.625 45.75 0 43.75 0Z" fill="#212121" fill-opacity="0.129412"/>
<path d="M43.75 1.25C45.125 1.25 46.25 2.375 46.25 3.75V26.25C46.25 27.625 45.125 28.75 43.75 28.75H3.75C2.375 28.75 1.25 27.625 1.25 26.25V3.75C1.25 2.375 2.375 1.25 3.75 1.25H43.75Z" fill="#006FCF"/>
<path d="M27.5151 24.9198V14.3936L46.2501 14.4098V17.3173L44.0851 19.6323L46.2501 21.9661V24.9348H42.7926L40.9551 22.9073L39.1301 24.9423L27.5151 24.9173V24.9198Z" fill="white"/>
<path d="M28.7661 23.7652V15.5527H35.7311V17.444H31.0211V18.729H35.6186V20.589H31.0211V21.8515H35.7311V23.7652H28.7661Z" fill="#006FCF"/>
<path d="M35.6963 23.7645L39.55 19.6533L35.6963 15.5508H38.6788L41.0338 18.1545L43.3963 15.552H46.25V15.6158L42.4788 19.6533L46.25 23.6495V23.7658H43.3663L40.97 21.137L38.5975 23.767H35.6963V23.7645Z" fill="#006FCF"/>
<path d="M28.3875 5.0498H32.905L34.4913 8.65105V5.0498H40.0663L41.0288 7.74855L41.9925 5.0498H46.25V15.5761H23.75L28.3875 5.0498Z" fill="white"/>
<path d="M29.2436 6.19336L25.5986 14.4009H28.0986L28.7861 12.7571H32.5111L33.1986 14.4009H35.7611L32.1311 6.19336H29.2436ZM29.5561 10.9146L30.6499 8.30211L31.7411 10.9146H29.5561Z" fill="#006FCF"/>
<path d="M35.7261 14.4002V6.19141L39.2398 6.20391L41.0498 11.2502L42.8698 6.19266H46.2498V14.3989L44.0748 14.4189V8.78141L42.0198 14.3989H40.0323L37.9373 8.76266V14.4002H35.7273H35.7261Z" fill="#006FCF"/>
</svg>
