<svg width="48" height="30" viewBox="0 0 48 30" fill="none" xmlns="http://www.w3.org/2000/svg">
<path opacity="0.07" d="M43.75 0H3.75C1.625 0 0 1.625 0 3.75V26.25C0 28.375 1.75 30 3.75 30H43.75C45.875 30 47.5 28.375 47.5 26.25V3.75C47.5 1.625 45.75 0 43.75 0Z" fill="#212121" fill-opacity="0.129412"/>
<path d="M43.75 1.25C45.125 1.25 46.25 2.375 46.25 3.75V26.25C46.25 27.625 45.125 28.75 43.75 28.75H3.75C2.375 28.75 1.25 27.625 1.25 26.25V3.75C1.25 2.375 2.375 1.25 3.75 1.25H43.75Z" fill="white"/>
<path d="M29.875 10.375C30.125 9.125 29.875 8.25 29.125 7.5C28.375 6.625 27 6.25 25.25 6.25H20.125C19.75 6.25 19.5 6.5 19.375 6.875L17.5 19.5C17.5 19.75 17.625 20 17.875 20H21.25L21.75 15.75L24 13L29.875 10.375Z" fill="#003087"/>
<path d="M29.875 10.375L29.625 10.625C29 14.125 26.875 15.375 23.875 15.375H22.5C22.125 15.375 21.875 15.625 21.75 16L21 20.875L20.75 22.125C20.75 22.375 20.875 22.625 21.125 22.625H23.75C24.125 22.625 24.375 22.375 24.375 22.125V22L24.875 19V18.875C24.875 18.625 25.25 18.375 25.5 18.375H25.875C28.5 18.375 30.5 17.375 31 14.375C31.25 13.125 31.125 12.125 30.5 11.375C30.375 10.75 30.125 10.5 29.875 10.375Z" fill="#3086C8"/>
<path d="M29.125 10.125C29 10 28.875 10 28.75 10C28.625 10 28.5 10 28.375 9.875C28 9.75 27.5 9.75 27 9.75H23.25C23.125 9.75 23 9.75 23 9.875C22.75 10 22.625 10.125 22.625 10.375L21.75 15.875V16C21.75 15.625 22.125 15.375 22.5 15.375H24.125C27.25 15.375 29.25 14.125 29.875 10.625V10.375C29.75 10.25 29.5 10.125 29.25 10.125H29.125Z" fill="#012169"/>
</svg>
