<svg width="48" height="30" viewBox="0 0 48 30" fill="none" xmlns="http://www.w3.org/2000/svg">
<path opacity="0.07" d="M43.75 0H3.75C1.625 0 0 1.625 0 3.75V26.25C0 28.375 1.75 30 3.75 30H43.75C45.875 30 47.5 28.375 47.5 26.25V3.75C47.5 1.625 45.75 0 43.75 0Z" fill="#212121" fill-opacity="0.129412"/>
<path d="M43.75 1.25C45.125 1.25 46.25 2.375 46.25 3.75V26.25C46.25 27.625 45.125 28.75 43.75 28.75H3.75C2.375 28.75 1.25 27.625 1.25 26.25V3.75C1.25 2.375 2.375 1.25 3.75 1.25H43.75Z" fill="white"/>
<path d="M15.0001 15V19.625C15.0001 20 14.7501 20 14.3751 19.875C12.0001 18.875 10.6251 15.75 11.5001 13.125C12.0001 11.75 13.0001 10.625 14.3751 10.125C14.8751 9.875 15.0001 10 15.0001 10.375V15ZM17.5001 15V10.375C17.5001 10 17.5001 10 17.8751 10.125C20.5001 11.125 21.8751 14.25 20.8751 16.875C20.3751 18.25 19.3751 19.375 18.0001 19.875C17.5001 20.125 17.5001 20 17.5001 19.625V15ZM26.5001 6.25H16.2501C21.0001 6.25 24.7501 10.125 24.7501 15C24.7501 19.875 21.0001 23.75 16.2501 23.75H26.5001C31.2501 23.75 35.0001 19.875 35.0001 15C35.0001 10.125 31.2501 6.25 26.5001 6.25Z" fill="#3086C8"/>
</svg>
