<svg width="48" height="30" viewBox="0 0 48 30" fill="none" xmlns="http://www.w3.org/2000/svg">
<path opacity="0.07" d="M44.25 0H4.25C2.125 0 0.5 1.625 0.5 3.75V26.25C0.5 28.375 2.25 30 4.25 30H44.25C46.375 30 48 28.375 48 26.25V3.75C48 1.625 46.25 0 44.25 0Z" fill="#212121" fill-opacity="0.129412"/>
<path d="M44.25 1.25C45.625 1.25 46.75 2.375 46.75 3.75V26.25C46.75 27.625 45.625 28.75 44.25 28.75H4.25C2.875 28.75 1.75 27.625 1.75 26.25V3.75C1.75 2.375 2.875 1.25 4.25 1.25H44.25Z" fill="white"/>
<path d="M4.9625 8.9498H3V15.8248H4.9625C6 15.8248 6.75 15.5748 7.4125 15.0373C8.2 14.3873 8.6625 13.4123 8.6625 12.3998C8.65 10.3623 7.1375 8.9498 4.9625 8.9498ZM6.5375 14.1248C6.1125 14.4998 5.575 14.6748 4.7 14.6748H4.3375V10.1248H4.7C5.5625 10.1248 6.0875 10.2748 6.5375 10.6748C7 11.0873 7.275 11.7248 7.275 12.3873C7.275 13.0498 7 13.7123 6.5375 14.1248ZM9.275 8.9498H10.6125V15.8248H9.275V8.9498ZM13.8875 11.5873C13.0875 11.2873 12.85 11.0873 12.85 10.7248C12.85 10.2873 13.275 9.9623 13.85 9.9623C14.25 9.9623 14.5875 10.1248 14.925 10.5248L15.625 9.6123C15.05 9.1123 14.3625 8.8498 13.6 8.8498C12.3875 8.8498 11.45 9.6998 11.45 10.8248C11.45 11.7748 11.8875 12.2623 13.1375 12.7123C13.6625 12.8998 13.925 13.0248 14.0625 13.0998C14.325 13.2748 14.4625 13.5248 14.4625 13.8123C14.4625 14.3748 14.025 14.7873 13.425 14.7873C12.7875 14.7873 12.275 14.4623 11.9625 13.8748L11.1 14.7123C11.7125 15.6248 12.4625 16.0248 13.475 16.0248C14.8625 16.0248 15.85 15.0998 15.85 13.7623C15.875 12.6498 15.4125 12.1498 13.8875 11.5873ZM16.2875 12.3998C16.2875 14.4248 17.875 15.9873 19.9125 15.9873C20.4875 15.9873 20.9875 15.8748 21.5875 15.5873V14.0123C21.05 14.5498 20.575 14.7623 19.975 14.7623C18.625 14.7623 17.6625 13.7873 17.6625 12.3873C17.6625 11.0623 18.65 10.0248 19.9125 10.0248C20.55 10.0248 21.0375 10.2498 21.5875 10.7998V9.2248C21 8.9248 20.5125 8.7998 19.9375 8.7998C17.925 8.7998 16.2875 10.3998 16.2875 12.3998ZM32.2375 13.5748L30.4 8.9498H28.9375L31.85 15.9998H32.575L35.5375 8.9498H34.0875L32.2375 13.5748ZM36.15 15.8248H39.95V14.6623H37.4875V12.8123H39.8625V11.6498H37.4875V10.1248H39.95V8.9498H36.15V15.8248ZM45.2625 10.9873C45.2625 9.6998 44.375 8.9623 42.825 8.9623H40.8375V15.8373H42.175V13.0748H42.35L44.2 15.8373H45.85L43.6875 12.9373C44.7 12.7248 45.2625 12.0373 45.2625 10.9873ZM42.5625 12.1248H42.175V10.0373H42.5875C43.425 10.0373 43.875 10.3873 43.875 11.0623C43.875 11.7498 43.425 12.1248 42.5625 12.1248Z" fill="#231F20"/>
<path d="M25.6999 16.0746C26.6716 16.0746 27.6035 15.6886 28.2905 15.0015C28.9776 14.3144 29.3636 13.3825 29.3636 12.4108C29.3636 11.4391 28.9776 10.5072 28.2905 9.82016C27.6035 9.13307 26.6716 8.74707 25.6999 8.74707C24.7282 8.74707 23.7963 9.13307 23.1092 9.82016C22.4221 10.5072 22.0361 11.4391 22.0361 12.4108C22.0361 13.3825 22.4221 14.3144 23.1092 15.0015C23.7963 15.6886 24.7282 16.0746 25.6999 16.0746Z" fill="url(#paint0_linear_33_555)"/>
<path opacity="0.65" d="M25.6999 16.0746C26.6716 16.0746 27.6035 15.6886 28.2905 15.0015C28.9776 14.3144 29.3636 13.3825 29.3636 12.4108C29.3636 11.4391 28.9776 10.5072 28.2905 9.82016C27.6035 9.13307 26.6716 8.74707 25.6999 8.74707C24.7282 8.74707 23.7963 9.13307 23.1092 9.82016C22.4221 10.5072 22.0361 11.4391 22.0361 12.4108C22.0361 13.3825 22.4221 14.3144 23.1092 15.0015C23.7963 15.6886 24.7282 16.0746 25.6999 16.0746Z" fill="url(#paint1_linear_33_555)"/>
<path d="M46.2126 9.38281C46.2126 9.25781 46.1251 9.19531 45.9876 9.19531H45.7876V9.79531H45.9376V9.55781L46.1126 9.79531H46.2876L46.0876 9.54531C46.1626 9.53281 46.2126 9.47031 46.2126 9.38281ZM45.9626 9.47031H45.9376V9.30781H45.9626C46.0376 9.30781 46.0751 9.33281 46.0751 9.38281C46.0751 9.44531 46.0376 9.47031 45.9626 9.47031Z" fill="#231F20"/>
<path d="M46.0123 8.96973C45.7248 8.96973 45.4873 9.20723 45.4873 9.49473C45.4873 9.78223 45.7248 10.0197 46.0123 10.0197C46.2998 10.0197 46.5373 9.78223 46.5373 9.49473C46.5373 9.20723 46.2998 8.96973 46.0123 8.96973ZM46.0123 9.93223C45.7873 9.93223 45.5873 9.74473 45.5873 9.49473C45.5873 9.25723 45.7748 9.05723 46.0123 9.05723C46.2373 9.05723 46.4248 9.25723 46.4248 9.49473C46.4248 9.73223 46.2373 9.93223 46.0123 9.93223Z" fill="#231F20"/>
<path d="M46.7502 16.2305C46.7502 16.2305 34.3627 24.8417 11.7202 28.7505H44.249C44.9086 28.7505 45.5414 28.4898 46.0097 28.0253C46.478 27.5608 46.7437 26.93 46.749 26.2705L46.779 22.4955L46.7502 16.2305Z" fill="#F48120"/>
<defs>
<linearGradient id="paint0_linear_33_555" x1="27.5711" y1="15.3433" x2="25.0399" y2="11.3796" gradientUnits="userSpaceOnUse">
<stop stop-color="#F89F20"/>
<stop offset="0.25" stop-color="#F79A20"/>
<stop offset="0.533" stop-color="#F68D20"/>
<stop offset="0.62" stop-color="#F58720"/>
<stop offset="0.723" stop-color="#F48120"/>
<stop offset="1" stop-color="#F37521"/>
</linearGradient>
<linearGradient id="paint1_linear_33_555" x1="27.1724" y1="15.2896" x2="23.4724" y2="8.05707" gradientUnits="userSpaceOnUse">
<stop stop-color="#F58720"/>
<stop offset="0.359" stop-color="#E16F27"/>
<stop offset="0.703" stop-color="#D4602C"/>
<stop offset="0.982" stop-color="#D05B2E"/>
</linearGradient>
</defs>
</svg>
