<svg width="48" height="30" viewBox="0 0 48 30" fill="none" xmlns="http://www.w3.org/2000/svg">
<path opacity="0.07" d="M44.25 0H4.25C2.125 0 0.5 1.625 0.5 3.75V26.25C0.5 28.375 2.25 30 4.25 30H44.25C46.375 30 48 28.375 48 26.25V3.75C48 1.625 46.25 0 44.25 0Z" fill="#212121" fill-opacity="0.129412"/>
<path d="M45.3613 0C46.8125 0 48 1.2275 48 2.7275V27.2725C48 28.7725 46.8125 30 45.3613 30H3.1375C1.6875 30 0.5 28.7725 0.5 27.2725V2.7275C0.5 1.2275 1.6875 0 3.13875 0H45.3613Z" fill="#5A31F4"/>
<path d="M12.1873 14.21C10.916 13.9313 10.3498 13.8225 10.3498 13.3288C10.3498 12.8637 10.7323 12.6312 11.4998 12.6312C12.1748 12.6312 12.6673 12.9288 13.031 13.5113C13.0438 13.5329 13.0644 13.5488 13.0886 13.5558C13.1127 13.5627 13.1386 13.5602 13.161 13.5487L14.5935 12.8188C14.6057 12.8122 14.6165 12.8033 14.6251 12.7925C14.6338 12.7818 14.6402 12.7693 14.6439 12.756C14.6477 12.7427 14.6487 12.7288 14.6469 12.7151C14.6451 12.7014 14.6405 12.6882 14.6335 12.6762C14.0398 11.6375 12.9423 11.0687 11.496 11.0687C9.59602 11.0687 8.41602 12.0125 8.41602 13.5138C8.41602 15.1075 9.85352 15.51 11.1285 15.7887C12.4035 16.0662 12.971 16.1763 12.971 16.67C12.971 17.165 12.556 17.3975 11.7298 17.3975C10.9648 17.3975 10.3985 17.045 10.0548 16.36C10.0427 16.3366 10.0219 16.3188 9.99689 16.3106C9.97184 16.3024 9.94458 16.3044 9.92102 16.3163L8.49227 17.0288C8.46802 17.0413 8.44969 17.0629 8.44127 17.0889C8.43284 17.1149 8.435 17.1431 8.44727 17.1675C9.01477 18.3175 10.1773 18.9637 11.731 18.9637C13.7098 18.9637 14.9048 18.0363 14.9048 16.4888C14.9048 14.9412 13.461 14.4913 12.1885 14.2138L12.1873 14.21ZM19.8623 11.0687C19.0498 11.0687 18.3323 11.3588 17.8173 11.8763C17.8102 11.8837 17.801 11.8888 17.7909 11.8909C17.7809 11.893 17.7704 11.8919 17.761 11.8878C17.7515 11.8837 17.7436 11.8768 17.7383 11.868C17.7329 11.8592 17.7304 11.849 17.731 11.8387V8.53875C17.7312 8.52551 17.7287 8.51237 17.7238 8.5001C17.7188 8.48782 17.7115 8.47665 17.7022 8.46723C17.6929 8.45781 17.6818 8.45033 17.6696 8.44523C17.6574 8.44013 17.6443 8.4375 17.631 8.4375H15.8373C15.8239 8.4375 15.8107 8.44016 15.7984 8.44534C15.7861 8.45053 15.775 8.45812 15.7657 8.46767C15.7563 8.47722 15.749 8.48854 15.7441 8.50096C15.7393 8.51339 15.7369 8.52666 15.7373 8.54V18.7825C15.7369 18.7958 15.7393 18.8091 15.7441 18.8215C15.749 18.834 15.7563 18.8453 15.7657 18.8548C15.775 18.8644 15.7861 18.872 15.7984 18.8772C15.8107 18.8823 15.8239 18.885 15.8373 18.885H17.6285C17.642 18.8852 17.6553 18.8826 17.6678 18.8775C17.6802 18.8724 17.6915 18.8649 17.7009 18.8553C17.7104 18.8457 17.7178 18.8343 17.7228 18.8218C17.7277 18.8093 17.7301 18.7959 17.7298 18.7825V14.29C17.7298 13.4213 18.3898 12.7562 19.2785 12.7562C20.166 12.7562 20.811 13.4075 20.811 14.29V18.7825C20.8107 18.7959 20.8131 18.8093 20.818 18.8218C20.823 18.8343 20.8304 18.8457 20.8398 18.8553C20.8493 18.8649 20.8606 18.8724 20.873 18.8775C20.8855 18.8826 20.8988 18.8852 20.9123 18.885H22.7035C22.717 18.8852 22.7303 18.8826 22.7428 18.8775C22.7552 18.8724 22.7665 18.8649 22.7759 18.8553C22.7854 18.8457 22.7928 18.8343 22.7978 18.8218C22.8027 18.8093 22.8051 18.7959 22.8048 18.7825V14.29C22.8048 12.4025 21.5798 11.0687 19.8623 11.0687ZM26.441 10.775C25.4685 10.775 24.5573 11.075 23.9035 11.51C23.8816 11.5242 23.8659 11.5461 23.8597 11.5714C23.8534 11.5968 23.857 11.6235 23.8698 11.6463L24.6598 13.0062C24.6663 13.0178 24.675 13.028 24.6854 13.0361C24.6959 13.0443 24.7079 13.0503 24.7207 13.0538C24.7335 13.0573 24.7468 13.0582 24.76 13.0565C24.7731 13.0547 24.7858 13.0504 24.7973 13.0438C25.2932 12.7411 25.8637 12.5826 26.4448 12.5863C28.0073 12.5863 29.1573 13.7 29.1573 15.1713C29.1573 16.425 28.2373 17.3525 27.071 17.3525C26.121 17.3525 25.461 16.795 25.461 16.0063C25.461 15.555 25.651 15.185 26.146 14.9237C26.1583 14.9175 26.1692 14.9088 26.1779 14.8981C26.1867 14.8875 26.1931 14.8751 26.1969 14.8619C26.2006 14.8486 26.2016 14.8347 26.1997 14.821C26.1979 14.8074 26.1932 14.7943 26.186 14.7825L25.441 13.51C25.4292 13.4893 25.4103 13.4735 25.3879 13.4655C25.3654 13.4575 25.3408 13.4577 25.3185 13.4662C24.3198 13.84 23.6198 14.7387 23.6198 15.9462C23.6198 17.7712 25.0598 19.1337 27.0698 19.1337C29.416 19.1337 31.1035 17.4925 31.1035 15.14C31.1035 12.6175 29.141 10.775 26.441 10.775ZM36.3435 11.0538C35.4385 11.0538 34.6273 11.3912 34.0373 11.9862C34.0048 12.02 33.951 11.995 33.951 11.95V11.235C33.9513 11.2217 33.949 11.2084 33.9441 11.196C33.9393 11.1835 33.9319 11.1722 33.9226 11.1627C33.9133 11.1531 33.9022 11.1455 33.8899 11.1403C33.8776 11.1352 33.8644 11.1325 33.851 11.1325H32.1048C32.0914 11.1325 32.0782 11.1352 32.0659 11.1403C32.0536 11.1455 32.0425 11.1531 32.0332 11.1627C32.0238 11.1722 32.0165 11.1835 32.0116 11.196C32.0068 11.2084 32.0044 11.2217 32.0048 11.235V21.4625C32.0046 21.4757 32.0071 21.4889 32.012 21.5012C32.017 21.5134 32.0243 21.5246 32.0336 21.534C32.0429 21.5434 32.054 21.5509 32.0662 21.556C32.0784 21.5611 32.0915 21.5638 32.1048 21.5637H33.896C33.9094 21.5639 33.9226 21.5614 33.935 21.5564C33.9473 21.5514 33.9585 21.5439 33.968 21.5345C33.9774 21.525 33.9849 21.5138 33.9899 21.5014C33.9949 21.4891 33.9974 21.4758 33.9973 21.4625V18.1088C33.9973 18.0638 34.051 18.0412 34.0835 18.0712C34.6959 18.6434 35.5055 18.9569 36.3435 18.9462C38.446 18.9462 40.0848 17.23 40.0848 15C40.0848 12.77 38.4435 11.0538 36.3435 11.0538ZM36.0048 17.215C34.8098 17.215 33.9035 16.255 33.9035 14.9863C33.9035 13.7175 34.8073 12.7575 36.0048 12.7575C37.2023 12.7575 38.1048 13.7013 38.1048 14.9863C38.1048 16.27 37.2148 17.215 36.0048 17.215Z" fill="white"/>
</svg>
