<svg width="48" height="30" viewBox="0 0 48 30" fill="none" xmlns="http://www.w3.org/2000/svg">
<path d="M43.75 0H3.75C1.67893 0 0 1.67893 0 3.75V26.25C0 28.3211 1.67893 30 3.75 30H43.75C45.8211 30 47.5 28.3211 47.5 26.25V3.75C47.5 1.67893 45.8211 0 43.75 0Z" fill="black" fill-opacity="0.07"/>
<path fill-rule="evenodd" clip-rule="evenodd" d="M43.75 1.25C45.125 1.25 46.25 2.375 46.25 3.75V26.25C46.25 27.625 45.125 28.75 43.75 28.75H3.75C2.375 28.75 1.25 27.625 1.25 26.25V3.75C1.25 2.375 2.375 1.25 3.75 1.25H43.75Z" fill="#3D95CE"/>
<path d="M30.8438 10.45C30.8438 14.28 27.6475 19.2563 25.0525 22.75H19.1275L16.75 8.2125L21.9388 7.71L23.195 18.0537C24.37 16.0962 25.8188 13.0225 25.8188 10.9262C25.8188 9.77875 25.6263 8.9975 25.3263 8.35375L30.0513 7.375C30.5975 8.2975 30.8438 9.24875 30.8438 10.45Z" fill="white"/>
</svg>
