<svg width="48" height="30" viewBox="0 0 48 30" fill="none" xmlns="http://www.w3.org/2000/svg">
<path opacity="0.07" d="M44.25 0H4.25C2.125 0 0.5 1.625 0.5 3.75V26.25C0.5 28.375 2.25 30 4.25 30H44.25C46.375 30 48 28.375 48 26.25V3.75C48 1.625 46.25 0 44.25 0Z" fill="#212121" fill-opacity="0.129412"/>
<path d="M44.25 1.25C45.625 1.25 46.75 2.375 46.75 3.75V26.25C46.75 27.625 45.625 28.75 44.25 28.75H4.25C2.875 28.75 1.75 27.625 1.75 26.25V3.75C1.75 2.375 2.875 1.25 4.25 1.25H44.25Z" fill="white"/>
<path d="M19.25 23.75C24.0825 23.75 28 19.8325 28 15C28 10.1675 24.0825 6.25 19.25 6.25C14.4175 6.25 10.5 10.1675 10.5 15C10.5 19.8325 14.4175 23.75 19.25 23.75Z" fill="#EB001B"/>
<path d="M29.25 23.75C34.0825 23.75 38 19.8325 38 15C38 10.1675 34.0825 6.25 29.25 6.25C24.4175 6.25 20.5 10.1675 20.5 15C20.5 19.8325 24.4175 23.75 29.25 23.75Z" fill="#F79E1B"/>
<path d="M28 15C28 12 26.5 9.375 24.25 7.875C22 9.5 20.5 12.125 20.5 15C20.5 17.875 22 20.625 24.25 22.125C26.5 20.625 28 18 28 15Z" fill="#FF5F00"/>
</svg>
