<svg width="20" height="20" viewBox="0 0 20 20" fill="none" xmlns="http://www.w3.org/2000/svg">
<path d="M17.0832 16.25V17.9375C17.0832 17.9835 17.0458 18.0208 16.9998 18.0208H2.99984C2.95381 18.0208 2.9165 17.9835 2.9165 17.9375V16.25C2.9165 15.3107 3.28965 14.4098 3.95384 13.7457C4.61803 13.0815 5.51886 12.7083 6.45817 12.7083H13.5415C14.4808 12.7083 15.3817 13.0815 16.0458 13.7457C16.71 14.4098 17.0832 15.3107 17.0832 16.25Z" stroke="#1B2120"/>
<path d="M10.0002 9.16666C11.9562 9.16666 13.5418 7.581 13.5418 5.62499C13.5418 3.66899 11.9562 2.08333 10.0002 2.08333C8.04415 2.08333 6.4585 3.66899 6.4585 5.62499C6.4585 7.581 8.04415 9.16666 10.0002 9.16666Z" stroke="#1B2120" stroke-linejoin="round"/>
</svg>
