<svg width="44" height="46" viewBox="0 0 44 46" fill="none" xmlns="http://www.w3.org/2000/svg">
<path fill-rule="evenodd" clip-rule="evenodd" d="M9.16667 37.6664C11.1917 37.6664 12.8333 36.0248 12.8333 33.9997C12.8333 31.9747 11.1917 30.333 9.16667 30.333C7.14163 30.333 5.5 31.9747 5.5 33.9997C5.5 36.0248 7.14163 37.6664 9.16667 37.6664Z" stroke="white" stroke-width="1.75" stroke-linecap="round" stroke-linejoin="round"/>
<path fill-rule="evenodd" clip-rule="evenodd" d="M34.8331 37.6664C36.8582 37.6664 38.4998 36.0248 38.4998 33.9997C38.4998 31.9747 36.8582 30.333 34.8331 30.333C32.8081 30.333 31.1665 31.9747 31.1665 33.9997C31.1665 36.0248 32.8081 37.6664 34.8331 37.6664Z" stroke="white" stroke-width="1.75" stroke-linecap="round" stroke-linejoin="round"/>
<path d="M5.49984 33.9997H2.74984C1.73732 33.9997 0.916505 33.1789 0.916505 32.1664V24.8605C0.915855 24.2676 1.20205 23.7109 1.68467 23.3664L7.33317 21.1664L8.82001 13.3875C9.02435 12.5718 9.75743 11.9997 10.5983 11.9997H17.4165V10.1663C17.4165 9.15382 18.2373 8.33301 19.2498 8.33301H41.2498C42.2623 8.33301 43.0831 9.15382 43.0831 10.1663V32.1664C43.0831 33.1789 42.2623 33.9997 41.2498 33.9997H38.4998" stroke="white" stroke-width="1.75" stroke-linecap="round" stroke-linejoin="round"/>
<path d="M12.8335 34H31.1669" stroke="white" stroke-width="1.75" stroke-linecap="round" stroke-linejoin="round"/>
<path d="M17.4165 12V30.3333" stroke="white" stroke-width="1.75" stroke-linecap="round" stroke-linejoin="round"/>
<path d="M0.916504 28.5H3.66651" stroke="white" stroke-width="1.75" stroke-linecap="round" stroke-linejoin="round"/>
<path d="M7.3335 21.167H17.4169" stroke="white" stroke-width="1.75" stroke-linecap="round" stroke-linejoin="round"/>
</svg>
