<svg width="44" height="46" viewBox="0 0 44 46" fill="none" xmlns="http://www.w3.org/2000/svg">
<path d="M30.9114 18.1939C32.9588 18.1939 34.6187 16.5341 34.6187 14.4866C34.6187 12.4391 32.9588 10.7793 30.9114 10.7793C28.8639 10.7793 27.2041 12.4391 27.2041 14.4866C27.2041 16.5341 28.8639 18.1939 30.9114 18.1939Z" stroke="white" stroke-width="1.75" stroke-linecap="round" stroke-linejoin="round"/>
<path fill-rule="evenodd" clip-rule="evenodd" d="M13.5864 42.5051L2.88965 31.8032C1.41309 30.3254 1.41309 27.93 2.88965 26.4522L22.7447 6.59128C23.4527 5.88208 24.4133 5.48323 25.4152 5.48243H36.1265C38.212 5.4794 39.9065 7.16571 39.9145 9.25217V19.9632C39.9147 20.9678 39.5152 21.9311 38.8044 22.6405L18.9348 42.5069C18.2255 43.2165 17.2634 43.615 16.2602 43.6147C15.2571 43.6143 14.2953 43.2152 13.5864 42.5051Z" stroke="white" stroke-width="1.75" stroke-linecap="round" stroke-linejoin="round"/>
<path d="M9.19678 30.68L19.0906 20.7861" stroke="white" stroke-width="1.75"/>
<path d="M12.4951 33.9777L19.0911 27.3818" stroke="white" stroke-width="1.75"/>
<path d="M31.2734 12.7755C30.9317 13.1172 30.9317 13.6712 31.2734 14.0129C31.6151 14.3546 32.1691 14.3546 32.5108 14.0129L31.2734 12.7755ZM43.1257 3.39802C43.4674 3.05631 43.4674 2.50229 43.1257 2.16058C42.784 1.81887 42.2299 1.81887 41.8882 2.16058L43.1257 3.39802ZM32.5108 14.0129L43.1257 3.39802L41.8882 2.16058L31.2734 12.7755L32.5108 14.0129Z" fill="white"/>
</svg>
